<svg xmlns="http://www.w3.org/2000/svg" xmlns:xlink="http://www.w3.org/1999/xlink" viewBox="0 0 208.36 208.34"><defs><style>.cls-1,.cls-2{fill-rule:evenodd;}.cls-1{fill:url(#GradientFill_1);}.cls-2{fill:url(#GradientFill_2);}.cls-3{fill:#004593;}.cls-4{fill:#0077c3;}.cls-5{fill:url(#未命名的渐变_23);}.cls-6{fill:#f49c00;}</style><linearGradient id="GradientFill_1" x1="233.91" y1="153.99" x2="67.31" y2="136.48" gradientUnits="userSpaceOnUse"><stop offset="0" stop-color="#00a0e9"/><stop offset="1" stop-color="#1d2088"/></linearGradient><linearGradient id="GradientFill_2" x1="33.86" y1="90.63" x2="265.75" y2="86.58" gradientUnits="userSpaceOnUse"><stop offset="0" stop-color="#f08300"/><stop offset="1" stop-color="#fdd000"/></linearGradient><linearGradient id="未命名的渐变_23" x1="70.84" y1="81.45" x2="195.71" y2="81.45" gradientUnits="userSpaceOnUse"><stop offset="0" stop-color="#f08300" stop-opacity="0.2"/><stop offset="1" stop-color="#fdd000" stop-opacity="0.9"/></linearGradient></defs><title>资源 4</title><g id="图层_2" data-name="图层 2"><g id="图层_1-2" data-name="图层 1"><path class="cls-1" d="M62.61,154.41c-4.66-15.53,3-33.56,32.63-44.78l-5.49-3.85c-36.89,15.16-38.6,38.16-27.14,48.63Zm105.39,40a105.39,105.39,0,0,1-9.24,6.38A104.21,104.21,0,0,1,17.14,54.75L67.81,90.3c-32.67,20-44.26,51.64-6.17,70.33q2.51,1.23,5,2.31c5.7,8.61,15.85,15.72,29.73,19.84,44.74,13.29,91.33-8.37,91.33-8.37l13.52,9.49s-11.67,8-33.23,10.53Zm2-32.32c-13.79,6.68-49.73,15.9-86.48,6.61,16.58,24,81.14,9.26,93.76-1.51L170,162.12Zm-51-35.78,36,25.24c-9.51,8.06-48.38,16.19-74.54,11.21C76.09,148.36,106.69,126.8,119.05,126.34Z" transform="translate(0 -7.91)"/><path class="cls-2" d="M145.76,69.74c4.66,15.53-10.33,28-37.7,41.31l5.49,3.85c40.22-19.19,43.66-34.7,32.21-45.16Zm-105.39-40a105.47,105.47,0,0,1,9.24-6.38A104.21,104.21,0,0,1,191.22,169.4l-61-42.77c34.45-15.11,54.54-44.42,16.46-63.11q-2.51-1.23-5-2.31C136,52.59,125.87,45.49,112,41.36c-44.74-13.29-91.33,8.37-91.33,8.37L7.14,40.24s11.67-8,33.23-10.53Zm3.18,36.07C57.33,59.1,88,46.13,124.79,55.42,107.1,29.7,55.37,49.9,36.26,60.67l7.28,5.11Zm40.7,28.56-25.69-18c11.17-5.61,43.15-19.94,69.31-15C132.27,75.79,103.22,90.7,84.25,94.34Z" transform="translate(0 -7.91)"/><path class="cls-3" d="M17.29,54.75,68,90.3s-47.3,27.53-24,57c0,0,4.73,7.79,22.79,15.61A57.45,57.45,0,0,0,89.5,180.32s.63,3.05,7.5,3.3l2-.15,4.87,1.17s-12,.74-18-.3c0,0-12.13-1.48-22.19-6.1,0,0-25.08-8.75-42-38.25,0,0-10.08-14.87-12.15-39C9.5,101,6.46,75.63,17.29,54.75Z" transform="translate(0 -7.91)"/><path class="cls-4" d="M83.3,108.75l2,2.59s-12.76,8-19.32,19.45c0,0-6.49,11.95-3.39,23.61,0,0-8.7-6.85-5.55-19.53C57.06,134.88,59.68,119.83,83.3,108.75Z" transform="translate(0 -7.91)"/><path class="cls-4" d="M92.18,140.5s2.45,21,1.61,23.7c0,0-5.23-.23-6.3-.42,0,0-4.14-.42-7-1,0,0-1.34-3.52.74-8.38A38.35,38.35,0,0,1,92.18,140.5Z" transform="translate(0 -7.91)"/><path class="cls-4" d="M92.93,170.75a7.37,7.37,0,0,1-1,5.25,25.11,25.11,0,0,1-8.36-7.27S92.38,170.58,92.93,170.75Z" transform="translate(0 -7.91)"/><path class="cls-5" d="M70.84,37.3S94.37,8.25,137,15.75c0,0,26.5,2.75,46.5,30.75,0,0,12.27,17.25,12.13,38,0,0,2.74,31.25-24.13,56.5,0,0-8.12,5.9-10.25,7.39l-31-21.76s14.42-5.13,28.2-19.09c0,0,6-6.4,8.11-13.75a26.74,26.74,0,0,0-2.48-16.33S159,68.31,141.53,61.09c0,0-5.79-10.51-20.54-16.43,0,0-9.71-5.67-31.25-7.33C89.75,37.33,77,36.59,70.84,37.3Z" transform="translate(0 -7.91)"/><path class="cls-6" d="M9.11,0" transform="translate(0 -7.91)"/></g></g></svg>