<svg xmlns="http://www.w3.org/2000/svg" width="144" height="144" viewBox="0 0 144 144">
  <g id="组_65" data-name="组 65" transform="translate(-58.1 -55.4)">
    <path id="路径_20" data-name="路径 20" d="M188.017,103.491c-7.066-20.214-25.334-34.706-46.626-34.706H118.825c-21.276,0-39.545,14.492-46.626,34.706a4.237,4.237,0,0,0-.414.17l-.541-24.028a6.249,6.249,0,0,0,3.644-5.773V61.633a5.83,5.83,0,1,0-11.633,0v12.21A6.249,6.249,0,0,0,66.9,79.616l-.621,27.332a23.1,23.1,0,0,0-8.179,17.8v18.7c0,9.775,5.9,18.153,14.1,21.253,7.081,20.214,25.35,34.706,46.626,34.706h22.565c21.276,0,39.545-14.492,46.626-34.706,8.18-3.1,14.083-11.478,14.083-21.253v-18.7C202.1,114.952,196.2,106.573,188.017,103.491Zm-5.251,38.3c0,12.6-9.628,22.9-21.4,22.9H98.854c-11.776,0-21.4-10.3-21.4-22.9V126.412c0-12.6,9.628-22.9,21.4-22.9h62.508c11.776,0,21.4,10.3,21.4,22.9Z" transform="translate(0 0)" fill="#627775"/>
    <path id="路径_21" data-name="路径 21" d="M297.9,380.144,282.566,397.7,263.6,371.8l-14.842,20.45L226,394.692l26.92.686,10.507-12.37,19.31,25.229L298.317,389l7.629,6.509,23-.779L308.8,392.448Z" transform="translate(-147.374 -256.119)" fill="#627775"/>
  </g>
</svg>
