<svg xmlns="http://www.w3.org/2000/svg" width="144" height="144" viewBox="0 0 144 144"><path d="M132,144H54a12,12,0,0,1-12-12V60A12,12,0,0,1,54,48H66V60A12,12,0,0,0,54,72v36h78V72a12,12,0,0,0-11.964-12V48H132a12,12,0,0,1,12,12v72a12,12,0,0,1-12,12ZM54,120a12,12,0,0,0,12,12h54a12,12,0,0,0,12-12ZM90,96H78.036V84A12,12,0,0,0,90,72V36H12V72A12,12,0,0,0,24,84V96H12A12,12,0,0,1,0,84V12A12,12,0,0,1,12,0H90a12,12,0,0,1,12,12V84A12,12,0,0,1,90,96ZM78,12H24A12,12,0,0,0,12,24H90A12,12,0,0,0,78,12Z" fill="#f8f9fa"/></svg>