<svg xmlns="http://www.w3.org/2000/svg" width="144" height="144" viewBox="0 0 144 144">
  <path id="路径_52" data-name="路径 52" d="M79.135,14.933c-34.138,0-62.069,27.811-62.069,61.8s27.931,61.8,62.069,61.8,62.069-27.811,62.069-61.8A61.919,61.919,0,0,0,79.135,14.933ZM56.169,44.29a16.743,16.743,0,0,0-4.034,2.163,32.838,32.838,0,0,0-3.724,3.09,14.881,14.881,0,0,0-2.793,3.4,25.5,25.5,0,0,0-2.172,4.017A2.362,2.362,0,0,1,39.1,55.1a19.96,19.96,0,0,1,2.793-4.944,23.139,23.139,0,0,1,7.759-7.725c1.552-.927,3.1-1.854,4.966-2.781a2.185,2.185,0,0,1,3.1,1.236,2.924,2.924,0,0,1-1.552,3.4Zm64.241,54.7a30.419,30.419,0,0,1-6.207,9.27,25.822,25.822,0,0,1-9.31,6.18A26.7,26.7,0,0,1,93.721,116.6a2.664,2.664,0,0,1-2.483-2.472,2.442,2.442,0,0,1,2.483-2.472,25,25,0,0,0,9.31-1.854,21.59,21.59,0,0,0,7.759-5.253,21.489,21.489,0,0,0,5.276-7.725,23.56,23.56,0,0,0,1.862-9.27,2.483,2.483,0,0,1,4.966,0,44,44,0,0,1-2.483,11.433Zm37.862,43.88-17.379-17.923a9.027,9.027,0,0,0-13.034,0,9.3,9.3,0,0,0,0,13.288l17.379,17.923a9.027,9.027,0,0,0,13.034,0A9.3,9.3,0,0,0,158.273,142.865Z" transform="translate(-17.066 -14.933)" fill="#f8f9fa"/>
</svg>
