<svg id="图层_1" data-name="图层 1" xmlns="http://www.w3.org/2000/svg" viewBox="0 0 600 400" style="background-color:#fff;"><defs><style>.cls-1{fill:none;}.cls-12,.cls-2,.cls-4{fill:#fff;}.cls-2,.cls-22{stroke:#ff7b7b;}.cls-11,.cls-12,.cls-13,.cls-2,.cls-22,.cls-23{stroke-miterlimit:10;}.cls-3{fill:#aadaff;}.cls-5{fill:#edebe9;}.cls-23,.cls-6{fill:#fdf1d2;}.cls-7{fill:#c6e8c6;}.cls-8{font-size:8.76px;}.cls-15,.cls-18,.cls-24,.cls-8{font-family:MicrosoftYaHeiLight, Microsoft YaHei;}.cls-20,.cls-21{fill:#0000ff;} .cls-9{fill:#ea4335;animation: location-float 3s cubic-bezier(0.42,0,0.58,1) infinite;
}.cls-10{fill:#a60d0d;animation: location-float 3s cubic-bezier(0.42,0,0.58,1) infinite;
}.cls-11,.cls-17{fill:#ef74b6;}.cls-11,.cls-12,.cls-13{stroke:#fff;}.cls-13,.cls-16{fill:#13b5c7;}.cls-13,.cls-23{stroke-width:2px;}.cls-14{fill:#e3e3e3;}.cls-15,.cls-16,.cls-17{font-size:12px;}.cls-16,.cls-17,.cls-19,.cls-20,.cls-21{font-family:Ftiebihei, Ftiebihei;}.cls-18,.cls-21,.cls-24{font-size:14px;}.cls-19{font-size:13.86px;}.cls-20{font-size:16px;}.cls-22{fill:#fff2af;}.cls-23{stroke:#d3a43c;}.cls-24{fill:#a37749;}@keyframes location-float {
    0% {
        transform:  translateY(0)
    }

    50% {
        transform:  translateY(-10px)
    }

    to {
        transform:  translateY(0)
    }
}</style></defs><title>ditu</title><path class="cls-1" d="M167,78s114-3,130,3c0,0,2,92-4,132,0,0-3,28-18,49,0,0-16,11-21,12,0,0-53-9-62-10,0,0-37-6-40-7C152,257,169,115,167,78Z"/><path class="cls-2" d="M120.5,399.5s16-39,22-69c0,0,9-62,10-74,0,0,18-167,15-179V.5h-8s1,87,0,92-4,94-8,104c0,0-17,106-17,110,0,0-24,87-25,93"/><path class="cls-3" d="M340.5,0H311s-.37,2.54-.57,4c-1.21,8.61-3.93,28.75-3.93,35.91v90.2s2,94.8-14,117.81l8,4.6s31-58,30-156.46"/><path class="cls-3" d="M300,252l11,7s-21,72-23,72l-12,15s-6,29-12,33c0,0-10,15-16,21h-9s-5,1-1-3C238,397,311,273,300,252Z"/><path class="cls-4" d="M0,246s131.93,3.18,142,10.59L254,274l38.5,7.67-3.39,17.57S263,285,253,283c0,0-43-8-51-9,0,0-47.34-7.41-50.67-7.21,0,0-32.33-4.79-44.33-5.79,0,0-99-13-107-6Z"/><path class="cls-4" d="M449,400s-47-32-57-34c0,0-2-4-22-4,0,0-44,0-54-3,0,0-32-9-39-12,0,0-22-6-26-11,0,0-9-3-17-5,0,0-22-7-38-7,0,0-48,4-53,4,0,0-38,0-43-1,0,0-38-2-51,0,0,0-46,4-48,7v7s20-2,25-4c0,0,13-2,18-1H60s45-2,57,0c0,0,22,4,39,2,0,0,28-6,47-5,0,0,22,5,28,8,0,0,21,4,27,8,0,0,30,11,46,18,0,0,22,8,47,5,0,0,23-3,37,4,0,0,42,20,47,24"/><path class="cls-5" d="M274,355.39s37.86,17.42,56.91,17c0,0,50.05-6.41,56.05,3.59a168.5,168.5,0,0,1,43,22l4,2H246Z"/><polygon class="cls-5" points="0 0 66 0.9 68.48 42.5 68 68 0 68 0 0"/><path class="cls-5" d="M208,68H168L167,0s52-1,50,1C217,1,204,67,208,68Z"/><path class="cls-5" d="M217,21l51,3-1,45-56-1S213,26,217,21Z"/><path class="cls-5" d="M271,24l28,2-.84,45.47L269,70S270,26,271,24Z"/><path class="cls-5" d="M217,18s48,6,53,3c0,0,2-13,2-21l2,.13L224,0S224,12,217,18Z"/><path class="cls-5" d="M274,0h28s-5,12-3,23l-27-2S276,10.38,274,0Z"/><path class="cls-5" d="M118,0l-1,68H71S72,6,68,0Z"/><path class="cls-5" d="M121,0h39l-.11,68.32L121,68S123,9,121,0Z"/><path class="cls-5" d="M119,79s2,97,0,106c0,0-1,26-3,32l-3,34.66L141,257s3-19,10-61c0,0,4-33,5-51.75L159,77Z"/><path class="cls-5" d="M117,80s1,92,0,103c0,0-5.85,66.7-6.42,68.35l-42.1-2.77S73,117,73,105c0,0-1-21,0-25C73,80,110,78,117,80Z"/><path class="cls-5" d="M15.24,77S57.68,79,71,79c.79,0-2.36,157-5.5,167,0,0-52.53-2-55.79-2L0,246S-1,87,0,77Z"/><path class="cls-5" d="M0,255s20-5,64.5,2c0,0,1.5,19,.5,20,0,0-26-1-28,0l-4,5L0,283Z"/><path class="cls-5" d="M0,286H22s.21,39.78,2.61,43.39L7.72,331.75S4,290,0,286Z"/><path class="cls-5" d="M25,285H35l4-5s21-1,24,0c0,0,0,18-2,23,0,0-4,21.64-5,23.32,0,0-27.44,3-29.23,2.82C26.79,329.14,21,299,25,285Z"/><path class="cls-5" d="M60.25,326.2S68,299,68,286V256.39l72.49,8.69S135,301,129,328Z"/><path class="cls-5" d="M0,341s48.5-8,53.75-5c0,0,.25,24-2.75,27L3,361l-3-1Z"/><path class="cls-5" d="M55,363s0-26,4-28c0,0,38-1.35,40.5.33,0,0-5.5,25.67-7.5,27.67Z"/><path class="cls-5" d="M0,372.27s33-1.1,50,0c0,0,1,10.79-7,12.77,0,0-10,13.65-13,15H0Z"/><polygon class="cls-5" points="54 375 88 376 81 395 54 391 54 375"/><path class="cls-5" d="M55,394s25,0,26,2a29.58,29.58,0,0,0-3,4s-20-1-22,0Z"/><path class="cls-5" d="M102,336s19,0,23,2l-6.37,26.65L96,364S101,338,102,336Z"/><polygon class="cls-5" points="90 376 115.11 377.58 109 400 83 400 90 376"/><path class="cls-5" d="M157.26,337.54S194,331,202,333c0,0,19.32,5,22.66,6,0,0,1.34,3,.34,5,0,0-6-1-9,2,0,0-7,10-8,13l-36,4H161Z"/><path class="cls-5" d="M336,0h25V-1s3,25,0,34c0,0-6,17-8,23,0,0-4,10-4,15l-18,1Z"/><path class="cls-5" d="M331,84.1S342,86,346,86c0,0,0,6,3,17,0,0,7,15,6,30,0,0,0,21-3,26,0,0-8,28-6,34,0,0,3,65,0,69,0,0,1,39,0,42l-44-13.66,8.53-28.09L300,253S331,191,331,84.1Z"/><path class="cls-5" d="M495,312l-23,18s15,17,16,24a26.38,26.38,0,0,1,9,5s27,19,32,22c0,0,24,11,26,11,0,0,8-56,10-59C565,333,502,312,495,312Z"/><path class="cls-5" d="M457,334s25-20,30-22c0,0-30-1-34,1,0,0,1,16,0,15S451,335,457,334Z"/><path class="cls-5" d="M391,366s45-10,53-18c0,0,20-10,24-14,0,0,10,6,15,21,0,0,4,6,9,5l29,19s-8,22-33,21C488,400,399,369,391,366Z"/><path class="cls-5" d="M526,383s-10.67,16.56-14,17h37s7,0,7-4Z"/><path class="cls-5" d="M448,315l1,13s-1,5,1,6c0,0,4,2,2,4,0,0-17,10-27,13,0,0-35,11-37,12,0,0-34.77-1.46-36.88-1.23,0,0-30.43-.75-30.77-1.76S328,316,332,312C332,312,436,319,448,315Z"/><path class="cls-5" d="M297.79,304,328,312l-10.47,47.58L276,348S296.57,316,297.79,304Z"/><path class="cls-5" d="M576,336l24,7v57H572l-27.67-32.06S546,339,553,332C553,332,581,392,576,336Z"/><path class="cls-5" d="M577,324l23,8V218H586S580,320,577,324Z"/><polygon class="cls-5" points="582 88 600 86 600 215 586 215 582 88"/><path class="cls-5" d="M582,76.68,600,77V0H577S583,71.37,582,76.68Z"/><path class="cls-5" d="M381,1l88-1,2,28L370,32V1Z"/><path class="cls-5" d="M474,0h94l1,15s-19,1-26,3c0,0-26,5-31,7l-39,2Z"/><polygon class="cls-5" points="473 31 507 29 543 21 519.5 75.58 473 74.76 473 31"/><polygon class="cls-5" points="548 21 569 19 569 76.45 522 75.63 548 21"/><path class="cls-5" d="M469,31l.11,44.58L358.5,72.75S358,58,364,51c0,0,6-14,6-17Z"/><path class="cls-5" d="M473,87h96s7,128,5,131l-101-3S474,90,473,87Z"/><path class="cls-5" d="M417,87h53v65H415s-2-39,0-45C415,107,415,88,417,87Z"/><path class="cls-5" d="M355.1,86h58.7s-2.8,22-1.8,26l1,38-50,2s1-24-1-45C362,107,357.2,90,355.1,86Z"/><polygon class="cls-5" points="470 156 470 216 425 215 355 218 355 156 470 156"/><path class="cls-5" d="M355,305V221s107-7,115-3c0,0,17,15,19,18,0,0-31,67-34,68C455,304,367,310,355,305Z"/><path class="cls-5" d="M458,303s28-5,38,0l32-22s2-1-3-7l-34-35Z"/><polygon class="cls-5" points="477 219 482 225 485 219 477 219"/><path class="cls-5" d="M489,220l85,2s1,21,0,24l-42,30-43-44S482,226,489,220Z"/><path class="cls-5" d="M572,252s-5,63-7,69l-61-17Z"/><path class="cls-6" d="M168,77s36.33,1,37.67,1.5c0,0,1.33,54.5-.67,70.5,0,0-10,56-7,68,0,0,0,20-1,32,0,0,0,9-1,13l-1,1s-38-3-42-5c0,0,2-21,4-45.67C157,212.33,171,94,168,77Z"/><path class="cls-6" d="M208,78.57l33,.9L239,154l-31-7S210,87.13,208,78.57Z"/><path class="cls-6" d="M243.16,79.53,297,81l-.69,91S256,167,240,154C240,154,243.32,79.06,243.16,79.53Z"/><path class="cls-6" d="M208,150s26,5,30,6c0,0,47,22,57,18,0,0,0,63-20,88,0,0-19,13-21,12l-56.5-9.83S205,151,208,150Z"/><path class="cls-5" d="M152,267s44.3,5,46.65,6.48c0,0,2.35,40.52-2.15,50.52,0,0-50.5,1-52.5,1C144,325,152,269,152,267Z"/><path class="cls-5" d="M200.88,274s51.3,8.5,53.21,9.25c0,0,.91,4.75,2.91,6.75l-21,41.79S206.52,324,199.26,324C199.26,324,203.75,284,200.88,274Z"/><path class="cls-5" d="M140.66,338.5,155,337s1,27,2,30l-8,14-17.85-10.61S139.32,342,140.66,338.5Z"/><path class="cls-5" d="M160,400H121s8-22,9-24l29,21"/><path class="cls-5" d="M152,383l11,7s11-15,28-5c0,0,12-2,15-2,0,0,19-32,22-34,0,0,1-4-9-1,0,0-5,10-10,14,0,0-18,5-30,4,0,0-12,3-17,2Z"/><path class="cls-6" d="M188,387a34,34,0,0,0-25,13h18Z"/><polygon class="cls-6" points="142 379 139.5 381 160 394 160 391 142 379"/><path class="cls-5" d="M204,400l4-8,1-8s24.09-37.9,26-42l17.52,4.84,12,4.91L238,398s3.38-2.9-1,2"/><path class="cls-6" d="M194,391c0,1,2-5,2-5h9l-4,9Z"/><path class="cls-6" d="M196,395s-5,5-4,5h5l2-4A2.19,2.19,0,0,0,196,395Z"/><polygon class="cls-6" points="190 389 183 400 186 400 191 390 190 389"/><polygon class="cls-6" points="202 400 205 394 200 400 202 400"/><path class="cls-7" d="M291,249s9.1,6.7,10.05,11.85L291,281.37l-14.34-2.85S289,251,291,249Z"/><path class="cls-7" d="M272,290.5l13,7L282,310s-8.33,26.33-14.67,33.67c0,0-18.33-4.67-20.33-10.67C247,333,262,291,272,290.5Z"/><text class="cls-8" transform="translate(152.4 241.52) rotate(-83.73)">建国中路</text><text class="cls-8" transform="matrix(-0.01, 1, -1, -0.01, 298.7, 94.6)">环城东路</text><text class="cls-8" transform="matrix(0.99, 0.12, -0.12, 0.99, 81.72, 256.44)">解放路</text><text class="cls-8" transform="matrix(1, 0.07, -0.07, 1, 75.8, 333.03)">清泰街</text><path class="cls-9" d="M255,169c0,7.73,7,13,14,20,8-8,14-12,14-20a14,14,0,0,0-28,0Z"/><circle class="cls-10" cx="269" cy="169" r="6" transform="translate(-10.99 18.91) rotate(-3.95)"/><path class="cls-11" d="M128,339c0,7.73,7,13,14,20,8-8,14-12,14-20a14,14,0,0,0-28,0Z"/><circle class="cls-12" cx="142" cy="339" r="6" transform="translate(-22.99 10.57) rotate(-3.95)"/><path class="cls-13" d="M283,48c0,7.73,7,13,14,20,8-8,14-12,14-20a14,14,0,0,0-28,0Z"/><circle class="cls-13" cx="297" cy="48" r="6" transform="translate(-2.6 20.55) rotate(-3.95)"/><path class="cls-14" d="M241,271.83s-8,4.74,0,9L254,283s32,11,35,15c0,0,13.17,6.6,18,8,0,0,20,7,41,6l23,1s5.5-3-2.25-6c0,0-24.75,1-66.75-17C302,290,270,276.67,241,271.83Z"/><text class="cls-15" transform="matrix(0.95, 0.3, -0.3, 0.95, 270.01, 289.8)">新城隧道</text><text class="cls-16" transform="translate(168 56)">杭州古城墙成陈列馆</text><text class="cls-17" transform="translate(133.67 351.33)"><tspan xml:space="preserve">        杭州歌德大酒店  </tspan></text><text class="cls-18" transform="translate(59.85 383.33) rotate(1.08) scale(0.96 1)">城站</text><text class="cls-19" transform="translate(494 150.04) scale(1.01 1)">采荷街道</text><text class="cls-20" transform="translate(295 178)">杭州原基网络科技有限公司</text><text class="cls-21" transform="translate(309 196)">上城科技创业中心</text><polygon class="cls-4" points="0 77 159.84 77.25 297 81 306.5 81 346 86 600 86 600 77 331.06 72.26 167.5 68.33 0 68 0 77"/><polygon class="cls-7" points="310 262 346.08 265.18 346.08 274 333 274 331 282 317 282 311 293 302 290 310 262"/><text class="cls-8" transform="translate(82.97 77.17) rotate(-0.64)">庆春路</text><path class="cls-22" d="M62.5.5h8l3.83,137.34S69,292.09,68,295.45s-2,60.36-14,99.76c0,0-.5.29-.5,2.29,0,0,.5,1.5,0,2h-4v-2a5.65,5.65,0,0,0,.5-2.29s9-41.08,8-55.33c0,0,7-57,5-67.07,0,0,1.69-39.4,2.34-135Z"/><path class="cls-23" d="M555,400a124,124,0,0,0,5-29s8-57,7-64c0,0,11.87-86.49,7.43-117.74,0,0-4.44-92.25-2.44-102.25L566,1h12l4,75s4.28,148,3.14,156c0,0-5.14,86-8.14,92,0,0,3,60-9,76"/><text class="cls-24" transform="translate(582.13 270.53) rotate(-85.29)">秋石高架</text><path class="cls-7" d="M292.5,203.33,270,200l-12-1-4,25,34.08,8.19S294,207.67,292.5,203.33Z"/><text class="cls-8" transform="matrix(0.99, 0.12, -0.12, 0.99, 255.72, 216.44)">横河公园</text></svg>